<svg xmlns="http://www.w3.org/2000/svg" viewBox="0 0 300 300"><defs><style>.cls-1{fill:#20e6d5;}.cls-2{fill:#e613c2;}.cls-3{fill:#f1db10;}</style></defs><g id="whiteKeys"><polygon class="cls-1" points="0.5 299.5 0.5 0.5 69.5 0.5 69.5 175.5 99.5 175.5 99.5 299.5 0.5 299.5"/><path d="M69,1V176H99V299H1V1H69m1-1H0V300H100V175H70V0Z"/><polygon class="cls-2" points="100.5 299.5 100.5 175.5 130.5 175.5 130.5 0.5 169.5 0.5 169.5 175.5 199.5 175.5 199.5 299.5 100.5 299.5"/><path d="M169,1V176h30V299H101V176h30V1h38m1-1H130V175H100V300H200V175H170V0Z"/><polygon class="cls-3" points="200.5 299.5 200.5 175.5 230.5 175.5 230.5 0.5 299.5 0.5 299.5 299.5 200.5 299.5"/><path d="M299,1V299H201V176h30V1h68m1-1H230V175H200V300H300V0Z"/></g><g id="blackKeys"><rect x="70" width="60" height="175"/><rect x="170" width="60" height="175"/></g></svg>